<?xml version="1.0" encoding="utf-8"?>
<svg viewBox="0 0 500 500" xmlns="http://www.w3.org/2000/svg" xmlns:bx="https://boxy-svg.com">
  <defs>
    <filter id="drop-shadow-filter-0" x="-500%" y="-500%" width="1000%" height="1000%" bx:preset="drop-shadow 1 -2 2 0 0.5 rgba(211,129,255,1)">
      <feGaussianBlur in="SourceAlpha" stdDeviation="0"/>
      <feOffset dx="-2" dy="2"/>
      <feComponentTransfer result="offsetblur">
        <feFuncA id="spread-ctrl" type="linear" slope="1"/>
      </feComponentTransfer>
      <feFlood flood-color="rgba(211,129,255,1)"/>
      <feComposite in2="offsetblur" operator="in"/>
      <feMerge>
        <feMergeNode/>
        <feMergeNode in="SourceGraphic"/>
      </feMerge>
    </filter>
    <style bx:fonts="Rubik">@import url(https://fonts.googleapis.com/css2?family=Rubik%3Aital%2Cwght%400%2C300%3B0%2C400%3B0%2C500%3B0%2C600%3B0%2C700%3B0%2C800%3B0%2C900%3B1%2C300%3B1%2C400%3B1%2C500%3B1%2C600%3B1%2C700%3B1%2C800%3B1%2C900&amp;display=swap);</style>
    <filter id="filter-2" x="-500%" y="-500%" width="1000%" height="1000%" bx:preset="drop-shadow 1 -2 2 0 0.5 rgba(242,124,255,1)">
      <feGaussianBlur in="SourceAlpha" stdDeviation="0"/>
      <feOffset dx="-2" dy="2"/>
      <feComponentTransfer result="offsetblur">
        <feFuncA id="feFuncA-1" type="linear" slope="1"/>
      </feComponentTransfer>
      <feFlood flood-color="rgba(242,124,255,1)"/>
      <feComposite in2="offsetblur" operator="in"/>
      <feMerge>
        <feMergeNode/>
        <feMergeNode in="SourceGraphic"/>
      </feMerge>
    </filter>
    <filter id="filter-1" x="-500%" y="-500%" width="1000%" height="1000%" bx:preset="drop-shadow 1 -2 2 0 0.5 rgba(255,120,158,1)">
      <feGaussianBlur in="SourceAlpha" stdDeviation="0"/>
      <feOffset dx="-2" dy="2"/>
      <feComponentTransfer result="offsetblur">
        <feFuncA id="feFuncA-2" type="linear" slope="1"/>
      </feComponentTransfer>
      <feFlood flood-color="rgba(255,120,158,1)"/>
      <feComposite in2="offsetblur" operator="in"/>
      <feMerge>
        <feMergeNode/>
        <feMergeNode in="SourceGraphic"/>
      </feMerge>
    </filter>
    <style bx:fonts="Fira Mono">@import url(https://fonts.googleapis.com/css2?family=Fira+Mono%3Aital%2Cwght%400%2C400%3B0%2C500%3B0%2C700&amp;display=swap);</style>
    <style bx:fonts="Fira Code">@import url(https://fonts.googleapis.com/css2?family=Fira+Code%3Aital%2Cwght%400%2C300%3B0%2C400%3B0%2C500%3B0%2C600%3B0%2C700&amp;display=swap);</style>
  </defs>
  <rect x="10.984" y="38.14" width="479.111" height="140.918" style="fill: rgb(209, 255, 199); stroke: rgb(48, 125, 30);"/>
  <rect x="19.796" y="44.176" width="33.668" height="127.329" style="fill: rgb(232, 189, 255); stroke: rgb(211, 129, 255);"/>
  <rect x="383.495" y="352.087" width="87.94" height="81.019" style="paint-order: fill; filter: url(#drop-shadow-filter-0); stroke: rgba(255, 255, 255, 0); fill: rgb(232, 189, 255);"/>
  <text style="fill: rgb(55, 21, 72); font-family: Rubik; font-size: 12px; white-space: pre;" transform="matrix(0, -1, 1, 0, 120.643768, 57.866592)" x="-78.891" y="-79.835">Transform</text>
  <rect x="59.382" y="44.176" width="33.668" height="127.329" style="fill: rgb(232, 189, 255); stroke: rgb(211, 129, 255);"/>
  <text style="fill: rgb(55, 21, 72); font-family: Rubik; font-size: 12px; white-space: pre;" transform="matrix(0, -1, 1, 0, 160.229767, 51.514862)" x="-78.891" y="-79.835">Velocity</text>
  <rect x="99.498" y="44.176" width="33.668" height="127.329" style="fill: rgb(232, 189, 255); stroke: rgb(211, 129, 255);"/>
  <text style="fill: rgb(55, 21, 72); font-family: Rubik; font-size: 12px; white-space: pre;" transform="matrix(0, -1, 1, 0, 200.345764, 45.664581)" x="-78.891" y="-79.835">Sprite</text>
  <rect x="140.283" y="44.176" width="33.668" height="127.329" style="fill: rgb(232, 189, 255); stroke: rgb(211, 129, 255);"/>
  <text style="fill: rgb(55, 21, 72); font-family: Rubik; font-size: 12px; white-space: pre;" transform="matrix(0, -1, 1, 0, 241.130768, 47.503242)" x="-78.891" y="-79.835">Health</text>
  <rect x="181.11" y="43.99" width="33.668" height="127.329" style="fill: rgb(250, 201, 255); stroke: rgb(242, 124, 255);"/>
  <text style="fill: rgb(63, 16, 68); font-family: Rubik; font-size: 12px; white-space: pre;" transform="matrix(0, -1, 1, 0, 281.957886, 57.68103)" x="-78.891" y="-79.835">Transform</text>
  <rect x="220.696" y="43.99" width="33.668" height="127.329" style="fill: rgb(250, 201, 255); stroke: rgb(242, 124, 255);"/>
  <text style="fill: rgb(63, 16, 68); font-family: Rubik; font-size: 12px; white-space: pre;" transform="matrix(0, -1, 1, 0, 321.543884, 51.3293)" x="-78.891" y="-79.835">Velocity</text>
  <rect x="260.812" y="43.99" width="33.668" height="127.329" style="fill: rgb(250, 201, 255); stroke: rgb(242, 124, 255);"/>
  <text style="fill: rgb(63, 16, 68); font-family: Rubik; font-size: 12px; white-space: pre;" transform="matrix(0, -1, 1, 0, 361.659882, 45.479023)" x="-78.891" y="-79.835">Sprite</text>
  <rect x="301.597" y="43.99" width="33.668" height="127.329" style="fill: rgb(250, 201, 255); stroke: rgb(242, 124, 255);"/>
  <text style="fill: rgb(63, 16, 68); font-family: Rubik; font-size: 12px; white-space: pre;" transform="matrix(0, -1, 1, 0, 402.444885, 47.31768)" x="-78.891" y="-79.835">Health</text>
  <rect x="155.89" y="356.945" width="87.94" height="81.019" style="paint-order: fill; filter: url(#filter-2); fill: rgb(250, 201, 255); stroke: rgba(238, 89, 255, 0);"/>
  <rect x="340.944" y="43.99" width="33.668" height="127.329" style="fill: rgb(255, 207, 221); stroke: rgb(255, 120, 158);"/>
  <text style="fill: rgb(94, 17, 39); font-family: Rubik; font-size: 12px; white-space: pre;" transform="matrix(0, -1, 1, 0, 441.791443, 57.681465)" x="-78.891" y="-79.835">Transform</text>
  <rect x="380.53" y="43.99" width="33.668" height="127.329" style="fill: rgb(255, 207, 221); stroke: rgb(255, 120, 158);"/>
  <text style="fill: rgb(94, 17, 39); font-family: Rubik; font-size: 12px; white-space: pre;" transform="matrix(0, -1, 1, 0, 481.377441, 51.329739)" x="-78.891" y="-79.835">Velocity</text>
  <rect x="420.646" y="43.99" width="33.668" height="127.329" style="fill: rgb(255, 207, 221); stroke: rgb(255, 120, 158);"/>
  <text style="fill: rgb(94, 17, 39); font-family: Rubik; font-size: 12px; white-space: pre;" transform="matrix(0, -1, 1, 0, 521.493408, 45.479462)" x="-78.891" y="-79.835">Sprite</text>
  <rect x="276.577" y="362.365" width="87.94" height="68.841" style="paint-order: fill; stroke: rgba(238, 89, 255, 0); filter: url(#filter-1); fill: rgb(255, 207, 221);"/>
  <text style="fill: rgb(55, 21, 72); font-family: Rubik; font-size: 11.7px; font-style: italic; font-weight: 700; white-space: pre;" x="78.638" y="290.59">Bird</text>
  <text style="fill: rgb(63, 16, 68); font-family: Rubik; font-size: 11.7px; font-style: italic; font-weight: 700; white-space: pre;" x="181.973" y="290.703">Pig</text>
  <text style="fill: rgb(94, 17, 39); font-family: Rubik; font-size: 11.7px; font-style: italic; font-weight: 700; white-space: pre;" x="263.86" y="292.762">Structure</text>
  <text style="fill: rgb(48, 125, 30); font-family: &quot;Fira Mono&quot;; font-size: 9px; font-weight: 700; white-space: pre;" x="108.766" y="32.087">0x2</text>
  <text style="fill: rgb(48, 125, 30); font-family: &quot;Fira Mono&quot;; font-size: 9px; font-weight: 700; white-space: pre;" x="150.034" y="31.151">0x3</text>
  <text style="fill: rgb(48, 125, 30); font-family: &quot;Fira Mono&quot;; font-size: 9px; font-weight: 700; white-space: pre;" x="188.378" y="31.619">0x4</text>
  <text style="fill: rgb(48, 125, 30); font-family: &quot;Fira Code&quot;; font-size: 11px; font-weight: 700; white-space: pre;" x="20.154" y="31.151">Memory...</text>
  <ellipse style="stroke: rgba(47, 125, 30, 0); fill: rgb(48, 125, 30);" cx="462.076" cy="108.599" rx="3.234" ry="3.234"/>
  <ellipse style="stroke: rgba(47, 125, 30, 0); fill: rgb(48, 125, 30);" cx="472.004" cy="108.599" rx="3.234" ry="3.234"/>
  <ellipse style="stroke: rgba(47, 125, 30, 0); fill: rgb(48, 125, 30);" cx="482.641" cy="108.599" rx="3.234" ry="3.234"/>
  <path d="M 41.537 182.934 C 41.537 182.934 41.884 183.551 42.05 183.86 C 42.216 184.169 42.378 184.478 42.539 184.792 C 42.86 185.42 43.171 186.053 43.479 186.693 C 44.096 187.973 44.7 189.272 45.338 190.55 C 46.613 193.105 48.053 195.612 50.003 197.725 C 65.309 214.139 96.706 217.269 117.947 216.769 C 131.865 216.43 146.889 220.576 160.082 215.476 C 175.414 209.446 185.994 195.213 198.817 185.189 L 198.201 184.401 C 185.284 194.521 174.83 208.682 159.718 214.544 C 146.841 219.628 131.987 215.448 117.923 215.769 C 96.742 216.271 65.725 213.301 50.737 197.045 C 48.853 195.024 47.495 192.634 46.232 190.103 C 45.601 188.838 45 187.546 44.38 186.259 C 44.07 185.616 43.754 184.971 43.429 184.336 C 43.266 184.019 43.099 183.7 42.931 183.386 C 42.762 183.073 42.417 182.46 42.417 182.46 C 42.416 182.458 41.538 182.936 41.537 182.934 Z" style="fill: none;"/>
</svg>