<?xml version="1.0" encoding="utf-8"?>
<svg viewBox="0 0 500 500" xmlns="http://www.w3.org/2000/svg" xmlns:bx="https://boxy-svg.com">
  <defs>
    <style bx:fonts="Rubik">@import url(https://fonts.googleapis.com/css2?family=Rubik%3Aital%2Cwght%400%2C300%3B0%2C400%3B0%2C500%3B0%2C600%3B0%2C700%3B0%2C800%3B0%2C900%3B1%2C300%3B1%2C400%3B1%2C500%3B1%2C600%3B1%2C700%3B1%2C800%3B1%2C900&amp;display=swap);</style>
  </defs>
  <rect x="9.04" y="27.312" width="479.111" height="140.918" style="fill: rgb(209, 255, 199); stroke: rgb(48, 125, 30);"/>
  <rect x="17.852" y="33.348" width="33.668" height="127.329" style="fill: rgb(232, 189, 255); stroke: rgb(211, 129, 255);"/>
  <text style="fill: rgb(55, 21, 72); font-family: Rubik; font-size: 12px; white-space: pre;" transform="matrix(0, -1, 1, 0, 118.699364, 47.038937)" x="-78.891" y="-79.835">Transform</text>
  <rect x="138.49" y="33.162" width="33.668" height="127.329" style="fill: rgb(232, 189, 255); stroke: rgb(211, 129, 255);"/>
  <text style="fill: rgb(55, 21, 72); font-family: Rubik; font-size: 12px; white-space: pre;" transform="matrix(0, -1, 1, 0, 239.337357, 40.50111)" x="-78.891" y="-79.835">Velocity</text>
  <rect x="259.327" y="33.162" width="33.668" height="127.329" style="fill: rgb(232, 189, 255); stroke: rgb(211, 129, 255);"/>
  <text style="fill: rgb(55, 21, 72); font-family: Rubik; font-size: 12px; white-space: pre;" transform="matrix(0, -1, 1, 0, 360.174255, 34.650917)" x="-78.891" y="-79.835">Sprite</text>
  <rect x="378.905" y="33.348" width="33.668" height="127.329" style="fill: rgb(232, 189, 255); stroke: rgb(211, 129, 255);"/>
  <text style="fill: rgb(55, 21, 72); font-family: Rubik; font-size: 12px; white-space: pre;" transform="matrix(0, -1, 1, 0, 479.75238, 36.675594)" x="-78.891" y="-79.835">Health</text>
  <rect x="57.935" y="33.348" width="33.668" height="127.329" style="fill: rgb(250, 201, 255); stroke: rgb(242, 124, 255);"/>
  <text style="fill: rgb(63, 16, 68); font-family: Rubik; font-size: 12px; white-space: pre;" transform="matrix(0, -1, 1, 0, 158.782791, 47.039375)" x="-78.891" y="-79.835">Transform</text>
  <rect x="178.434" y="33.162" width="33.668" height="127.329" style="fill: rgb(250, 201, 255); stroke: rgb(242, 124, 255);"/>
  <text style="fill: rgb(63, 16, 68); font-family: Rubik; font-size: 12px; white-space: pre;" transform="matrix(0, -1, 1, 0, 279.281494, 40.501644)" x="-78.891" y="-79.835">Velocity</text>
  <rect x="298.863" y="33.348" width="33.668" height="127.329" style="fill: rgb(250, 201, 255); stroke: rgb(242, 124, 255);"/>
  <text style="fill: rgb(63, 16, 68); font-family: Rubik; font-size: 12px; white-space: pre;" transform="matrix(0, -1, 1, 0, 399.710968, 34.83754)" x="-78.891" y="-79.835">Sprite</text>
  <rect x="417.553" y="33.162" width="33.668" height="127.329" style="fill: rgb(250, 201, 255); stroke: rgb(242, 124, 255);"/>
  <text style="fill: rgb(63, 16, 68); font-family: Rubik; font-size: 12px; white-space: pre;" transform="matrix(0, -1, 1, 0, 518.400208, 36.490013)" x="-78.891" y="-79.835">Health</text>
  <rect x="98.554" y="33.348" width="33.668" height="127.329" style="fill: rgb(255, 207, 221); stroke: rgb(255, 120, 158);"/>
  <text style="fill: rgb(94, 17, 39); font-family: Rubik; font-size: 12px; white-space: pre;" transform="matrix(0, -1, 1, 0, 199.401047, 47.03981)" x="-78.891" y="-79.835">Transform</text>
  <rect x="218.645" y="33.348" width="33.668" height="127.329" style="fill: rgb(255, 207, 221); stroke: rgb(255, 120, 158);"/>
  <text style="fill: rgb(94, 17, 39); font-family: Rubik; font-size: 12px; white-space: pre;" transform="matrix(0, -1, 1, 0, 319.491608, 40.68808)" x="-78.891" y="-79.835">Velocity</text>
  <rect x="338.687" y="33.348" width="33.668" height="127.329" style="fill: rgb(255, 207, 221); stroke: rgb(255, 120, 158);"/>
  <text style="fill: rgb(94, 17, 39); font-family: Rubik; font-size: 12px; white-space: pre;" transform="matrix(0, -1, 1, 0, 439.533966, 34.837448)" x="-78.891" y="-79.835">Sprite</text>
  <text style="fill: rgb(48, 125, 30); font-family: &quot;Fira Mono&quot;; font-size: 9px; font-weight: 700; white-space: pre;" x="106.822" y="21.259">0x2</text>
  <text style="fill: rgb(48, 125, 30); font-family: &quot;Fira Mono&quot;; font-size: 9px; font-weight: 700; white-space: pre;" x="148.09" y="20.323">0x3</text>
  <text style="fill: rgb(48, 125, 30); font-family: &quot;Fira Mono&quot;; font-size: 9px; font-weight: 700; white-space: pre;" x="186.434" y="20.791">0x4</text>
  <text style="fill: rgb(48, 125, 30); font-family: &quot;Fira Code&quot;; font-size: 11px; font-weight: 700; white-space: pre;" x="18.21" y="20.323">Memory...</text>
  <ellipse style="stroke: rgba(47, 125, 30, 0); fill: rgb(48, 125, 30);" cx="460.132" cy="97.771" rx="3.234" ry="3.234"/>
  <ellipse style="stroke: rgba(47, 125, 30, 0); fill: rgb(48, 125, 30);" cx="470.06" cy="97.771" rx="3.234" ry="3.234"/>
  <ellipse style="stroke: rgba(47, 125, 30, 0); fill: rgb(48, 125, 30);" cx="480.697" cy="97.771" rx="3.234" ry="3.234"/>
</svg>